<svg width="132" height="60" viewBox="0 0 132 60" fill="none" xmlns="http://www.w3.org/2000/svg"><g clip-path="url(#clip0_1_764)"><path d="m56.64 17.81c-.55 0-.82-.52-.82-1.55c0-1.58-.07-4.16-.22-7.68c-.18-4.43-.31-5.33-.38-5.47c-.03-.57.16-.93.53-1.19c.14-.09.31-.15.54-.21c.22-.05.42-.08.6-.08c.05-.01.24-.02.52-.02c.37 0 .64.06.82.2c.2.15.29.39.29.73c0 .29-.14.44-.26.53c-.15.1-.33.15-.54.15l-.23-.02h-.27c-.31 0-.38.05-.38.05c.02.67.07 1.61.17 2.75c.07.87.13 1.7.16 2.49c.08-.02.18-.04.29-.07c.29-.07.5-.1.66-.1c.22 0 .41.1.56.28c.15.17.22.37.22.59c0 .28-.14.5-.4.62l-.2.09c-.13.06-.28.1-.48.11l-.64.06c.01.8.08 1.86.2 3.13c.12 1.48.19 2.63.19 3.4c0 .02-.02.12-.03.13c0 .01.01.12.01.26c0 .24-.09.45-.27.6c-.17.14-.38.21-.64.21l0 0z" fill="#D59629"/><path d="m65.77 18.37c-.42 0-.81-.14-1.16-.42c-.33-.27-.61-.64-.84-1.09c-.41-.76-.72-1.82-.91-3.13c-.14-.9-.24-1.95-.31-3.13l-.02-1.11v-1.12c-.01-.35-.02-.79-.02-1.31c0-.83.04-1.58.11-2.22c.06-.67.2-1.35.43-2.02c.24-.62.6-1.06 1.05-1.32c.3-.13.58-.2.86-.2c.8 0 1.45.32 1.92.96c.49.67.82 1.44.97 2.27c.22.97.35 1.92.38 2.81c.06.98.08 1.91.08 2.78v1.18c0 .24-.04.69-.11 1.35c-.05.5-.08.93-.08 1.28c-.09.5-.12.94-.12 1.45c0 .41-.09.84-.26 1.28c-.18.44-.43.83-.76 1.14c-.33.37-.74.56-1.19.56v0zm-.72-15.51c-.09 0-.35 0-.55.65c-.2.56-.34 1.17-.4 1.82c-.08.73-.13 1.43-.14 2.08l-.02.68c-.01.2-.02.45-.02.78c0 .99.1 2.13.29 3.47c.22 1.8.54 3.09.95 3.84c.16.28.4.61.67.61c.22 0 .41-.39.5-.62c.16-.43.28-.98.35-1.61c.07-.65.14-1.39.2-2.22c.03-.35.04-.81.04-1.37l-.02-1.9c-.03-.72-.11-1.66-.25-2.77c-.11-.93-.31-1.76-.61-2.47c-.13-.32-.28-.56-.46-.73c-.17-.16-.33-.23-.51-.23l0 0z" fill="#D59629"/><path d="m77.52 18.1c-.24 0-.58 0-1.91-4.43c-.77-2.65-1.47-5.16-2.07-7.48v5.03c0 .57.06 1.56.17 2.95c.1 1.54.15 2.51.15 2.96c0 .14-.06.35-.34.51c-.18.11-.4.17-.63.17c-.61 0-.66-.43-.66-.55l.04-.62c.03-.43.04-.72.04-.86c0-.72-.04-1.85-.12-3.47c-.08-1.62-.12-2.61-.12-2.95v-2.65c0-.43.02-1.07.06-1.92c.06-.73.08-1.36.08-1.89c0-.96.23-1.38.68-1.38c.29 0 .55.31.89 1.04c.46 1 1.05 2.81 1.75 5.38c.38 1.42.83 3.24 1.33 5.43c.01-.6.02-1.16.03-1.69l.04-3.6v-6.14c.07-.49.39-.74.89-.74c.29 0 .78.13.78 1.03c0 .04-.01.2-.02.22c-.07.13-.1.3-.1.5c0 .84-.02 2.11-.06 3.81c-.04 1.71-.06 2.99-.06 3.85v6.32c0 .26-.07.51-.21.75c-.2.34-.45.41-.62.41l-.01.01z" fill="#D59629"/><path d="m83.9 17.83c-.32 0-.6-.07-.83-.22c-.27-.16-.4-.41-.4-.71c0-.06.02-.12.06-.16c.15-.15.39-.64.39-2.27c0-.79-.06-1.94-.19-3.42c-.14-1.43-.21-2.58-.21-3.42l.04-1.15c.01-.33.02-.71.02-1.13c0-.37-.07-.84-.2-1.42c-.17-.64-.25-1.09-.25-1.36c0-.63.61-.95 1.82-.95h.31c.79 0 1.5.25 2.09.73c.47.41.87 1 1.18 1.76c.21.51.4 1.22.55 2.12c.09.79.13 1.41.13 1.86v1.64l-.04.17c0 .12.01.17.01.19c.02.08.03.17.03.26c0 .46-.07 1.01-.2 1.63c-.13.62-.33 1.27-.58 1.91c-.64 1.55-1.36 2.67-2.16 3.32c-.5.39-1.03.59-1.57.59l0 0zm.16-14.49c.01 1.24.09 3.06.25 5.41c.17 2.48.25 4.39.25 5.69v1.54c.34-.28.66-.64.94-1.07c.37-.58.66-1.23.86-1.94c.37-1.33.55-2.69.55-4.04c0-.73-.07-1.54-.21-2.41c-.15-.82-.46-1.56-.93-2.22c-.21-.3-.49-.54-.81-.71c-.27-.14-.57-.22-.89-.24z" fill="#D59629"/><path d="m96.44 17.79c-.28 0-.48-.06-.62-.17c-.16-.13-.24-.33-.24-.59v-2.59c-.14-.07-.39-.15-.83-.24c-.43-.08-.84-.14-1.23-.17c-.11.24-.19.53-.24.86l-.09.42c-.01.09-.05.31-.12.64c-.07.34-.15.64-.23.89c-.09.25-.18.46-.27.61c-.04.07-.11.11-.19.11c-.63 0-1.01-.19-1.12-.57c-.02-.06-.01-.13.03-.19c.07-.11.24-.5.48-1.86l.68-3.79c.31-1.8.58-3.33.84-4.6c.26-1.28.54-2.36.83-3.22c.36-1.09.71-1.58 1.12-1.58c.34 0 .6.07.79.21c.06.04.09.11.09.18c0 .54.13 1.87.39 3.97c.28 2.07.42 3.51.42 4.27c0 .72.08 1.77.23 3.12c.14 1.4.21 2.53.21 3.36c0 .59-.33.93-.91.93l-.01.01zm-2.69-5.09c.51.13 1.05.2 1.61.2c.05 0 .11-.01.18-.02c-.04-.57-.11-1.26-.19-2.05c-.22-2.16-.36-3.75-.43-4.76c-.05.21-.11.45-.17.76c-.24 1.11-.47 2.31-.67 3.56c-.18 1.11-.28 1.88-.32 2.32v-.01z" fill="#D59629"/><path d="m102.97 17.93c-.2 0-.48-.07-.68-.41c-.14-.23-.21-.52-.21-.85c0-.46.03-1.03.08-1.7l.04-.54l.04-1.09c0-.47-.05-1.52-.15-3.21c-.1-1.65-.14-2.74-.14-3.24c0-.04 0-.13.01-.25c.01-.11.01-.29.01-.54c.01-.28.02-.62.02-1.01c0-.97-.06-1.45-.13-1.69c-.09.01-.21.02-.36.05l-.6.04c-.24 0-.45-.07-.62-.2c-.2-.15-.3-.35-.3-.58c0-.4.48-.59.64-.64c.51-.17 1.34-.29 2.53-.37c.47-.03.76-.04.86-.04c.22 0 .42.07.6.21c.19.15.29.35.29.59c0 .23-.09.43-.25.57c-.16.14-.36.21-.59.21l-.39-.02c-.11-.01-.21-.02-.32-.02c.08.85.12 1.63.12 2.32l-.02 1.33c-.01.4-.02.85-.02 1.34c0 .66.03 1.45.08 2.37c.07 1.15.1 1.95.1 2.4c0 .52.03 1.14.08 1.85c.06.74.08 1.37.08 1.88c0 1.02-.45 1.24-.82 1.24l0 .01z" fill="#D59629"/><path d="m110.36 17.77c-.86 0-2.01-.09-2.01-.84c0-.22.08-.72.84-.72h.25c.09.02.14.02.19.02c.06-.01.09-.06.09-.26c0-1.16-.07-2.78-.21-4.79c-.12-2.12-.19-3.73-.19-4.8c0-.39.01-.75.02-1.06l.02-1.05c0-.32-.01-.61-.03-.86c-.09.02-.19.02-.28.02c-.44 0-.7-.26-.7-.72c0-.17.07-.42.41-.62c.22-.14.51-.24.86-.3c.59-.1 1.1-.15 1.51-.15c.22 0 .42.07.58.23c.16.15.24.34.24.56c0 .21-.06.38-.18.53c-.13.16-.31.25-.51.25c-.1 0-.19-.01-.26-.03l-.11.01c-.11 0-.14.03-.14.03c0 0-.03.04-.03.18c0 1.45.09 3.48.27 6.03c.17 2.69.25 4.73.25 6.09v.55c.06 0 .12 0 .19 0c.95 0 1.09.59 1.09.95c0 .07-.03.27-.1.31l-.52.35c-.04.02-.08.04-.12.04c-.17.02-.32.02-.54.02c-.46.03-.76.04-.87.04l0 0z" fill="#D59629"/><path d="m118.72 18.37c-.42 0-.81-.14-1.16-.42c-.33-.27-.61-.64-.84-1.09c-.41-.76-.72-1.82-.91-3.13c-.14-.9-.25-1.95-.31-3.13l-.02-1.11v-1.12c-.01-.35-.02-.79-.02-1.31c0-.83.04-1.58.11-2.22c.06-.67.2-1.35.42-2.02c.24-.62.6-1.06 1.05-1.32c.3-.13.58-.2.86-.2c.8 0 1.45.32 1.92.96c.49.67.82 1.44.97 2.27c.22.97.35 1.92.38 2.81c.06.98.08 1.91.08 2.78v1.18c0 .24-.04.69-.11 1.35c-.05.5-.08.93-.08 1.28c-.09.5-.12.94-.12 1.45c0 .41-.09.84-.26 1.28c-.18.44-.43.83-.76 1.14c-.33.37-.74.56-1.19.56v0zm-.72-15.51c-.09 0-.35 0-.55.65c-.2.56-.34 1.17-.4 1.82c-.08.73-.13 1.43-.14 2.08l-.02.68c-.01.2-.02.45-.02.78c0 .99.1 2.13.29 3.47c.22 1.8.54 3.09.95 3.84c.16.28.4.61.67.61c.22 0 .41-.39.5-.62c.16-.43.28-.98.35-1.61c.07-.65.14-1.39.2-2.22c.03-.35.04-.81.04-1.37l-.02-1.9c-.03-.72-.11-1.66-.25-2.77c-.11-.93-.31-1.76-.61-2.47c-.13-.32-.28-.56-.47-.73c-.17-.16-.33-.23-.51-.23l0 0z" fill="#D59629"/><path d="m130.47 18.1c-.24 0-.58 0-1.91-4.43c-.77-2.65-1.47-5.16-2.07-7.48v5.03c0 .57.06 1.56.17 2.95c.1 1.54.15 2.51.15 2.96c0 .14-.06.35-.34.51c-.19.11-.4.17-.63.17c-.61 0-.66-.43-.66-.55l.04-.62c.03-.43.04-.72.04-.86c0-.72-.04-1.85-.12-3.47c-.08-1.62-.12-2.61-.12-2.95v-2.65c0-.43.02-1.07.06-1.92c.06-.73.08-1.36.08-1.89c0-.96.23-1.38.68-1.38c.29 0 .55.31.89 1.04c.46 1 1.05 2.81 1.75 5.38c.38 1.42.83 3.24 1.33 5.43c.01-.6.02-1.16.03-1.69l.04-3.6v-6.14c.07-.49.39-.74.89-.74c.29 0 .78.13.78 1.03c0 .04-.01.2-.02.22c-.07.13-.1.3-.1.5c0 .84-.02 2.11-.06 3.81c-.04 1.71-.06 2.99-.06 3.85v6.32c0 .26-.07.51-.21.75c-.2.34-.45.41-.62.41l-.01.01z" fill="#D59629"/><path d="m62.92 47.03c-.38 0-.75-.25-1.08-.75c-.02-.04-.04-.15-.04-.2c-.05-.83-.19-1.77-.43-2.8c-.24-1.04-.6-2.31-1.06-3.78c-.17-.52-.32-1.01-.46-1.48v7.94c0 .31-.06.54-.17.7c-.13.18-.37.27-.7.27c-.26 0-.46-.09-.62-.25c-.15-.16-.23-.37-.23-.62l.05-7.3c.03-2.1.05-4.45.05-7.08v-2.97c0-.26.06-.45.2-.56c.12-.11.33-.17.66-.17c.43 0 .84.09 1.2.25c.37.17.68.4.94.7c.52.59.87 1.31 1.02 2.14c.07.34.1.72.1 1.15c0 .25-.02.53-.06.83c-.04.3-.07.49-.09.57c-.03.17-.11.42-.23.75l-.22.62l-.29.7l-.24.62c.03.48.13 1.2.31 2.07c.18.89.39 1.71.61 2.45c.16.53.45 1.41.87 2.65l.7 2.13c.01.42-.01.66-.07.87c-.07.35-.33.55-.72.55l0 0zm-3.06-15.3c-.05 1.08-.07 1.92-.07 2.51c0 .22 0 .4 0 .56c.14-.16.28-.33.45-.54l.32-1.98c.01-.07.02-.17.02-.3c0-.44-.09-.97-.26-1.56c-.09-.26-.2-.49-.34-.66c-.02-.03-.05-.06-.08-.09l-.04 2.05l0 0z" fill="#D59629"/><path d="m68.57 46.93c-.33 0-.62-.05-.87-.13c-.25-.07-.56-.29-.56-.89v-14.04c0-.26-.05-.66-.14-1.19c-.11-.5-.17-.93-.17-1.27c0-.04.01-.15.03-.19c.29-.48.49-.77.64-.91c.04-.04.1-.06.16-.06c.22 0 .5-.03.86-.09c.35-.07.66-.1.93-.1c.3 0 .59.09.87.26c.31.2.46.44.46.73c0 .43-.23.95-1.33.95h-.34c-.12-.02-.22-.02-.34-.02c-.01 0-.03 0-.04 0c.01.5.04 1.09.1 1.76l.05.68l.05 1.34c0 .32-.02.79-.07 1.43l-.04 1.06l.06-.01c.33-.1.61-.15.84-.15c.23 0 .45.09.64.27c.19.18.29.39.29.64c0 .24-.08.46-.23.66c-.16.21-.38.31-.62.31l-.31-.02h-.29c-.12 0-.22.02-.28.05v7.13l1.12-.06c1.07 0 1.61.29 1.61.85c0 .04-.01.17-.02.2c-.12.24-.33.43-.64.57c-.28.13-.55.21-.82.25c0 0-.82.02-.83.02h-.75l0 .01z" fill="#D59629"/><path d="m76.59 46.98c-1.1 0-1.33-.45-1.33-.83l.1-5.95c0-1.08-.02-2.71-.07-4.9c-.05-2.18-.07-3.81-.07-4.91v-.15c0-.44.04-.84.12-1.21c.12-.53.47-.83.99-.83c1.19 0 2.15.39 2.85 1.16c.7.76 1.05 1.78 1.05 3.03c0 .76-.2 1.55-.6 2.37c-.34.7-.75 1.25-1.21 1.65c.84.62 1.48 1.41 1.9 2.35c.45 1.01.68 2.15.68 3.36c0 .59-.2 1.33-.6 2.2c-.49 1.04-1.16 1.8-2.01 2.25c-.52.26-1.09.39-1.7.39h-.1h0zm.45-9.26c.07 1.8.11 4.32.11 7.51c.61-.14 1.1-.45 1.49-.95c.43-.57.66-1.27.66-2.07c0-.72-.06-1.4-.18-2c-.11-.59-.26-1.04-.44-1.34c-.17-.29-.34-.54-.51-.74c-.2-.23-.32-.32-.39-.35l-.17-.06l-.56.01v0zm.04-7.7c-.04 0-.11.13-.11.53c0 1.06.01 2.01.05 2.84l.04 2.36c.24-.15.45-.42.65-.81c.24-.44.46-.98.66-1.61c.05-.17.13-.41.25-.69l-.02-.76c0-.43-.16-.86-.48-1.26c-.31-.4-.65-.59-1.03-.59v0z" fill="#D59629"/><path d="m87.95 47.46c-.49 0-.93-.16-1.32-.49c-.38-.31-.71-.73-.98-1.26c-.48-.88-.83-2.11-1.06-3.64c-.16-1.04-.28-2.27-.37-3.64l-.02-1.29v-1.31c-.02-.41-.02-.92-.02-1.52c0-.98.04-1.85.12-2.59c.06-.78.23-1.57.49-2.34c.28-.71.69-1.22 1.21-1.52c.34-.15.66-.22.98-.22c.93 0 1.67.37 2.21 1.1c.57.78.94 1.67 1.13 2.63c.26 1.12.41 2.23.44 3.27c.06 1.15.1 2.25.1 3.25v1.38c0 .28-.04.8-.12 1.57c-.06.59-.1 1.09-.1 1.5c0 .02 0 .13 0 .15c-.09.43-.14.95-.14 1.55c0 .48-.1.98-.31 1.48c-.2.51-.5.95-.87 1.31c-.39.42-.85.64-1.36.64h-.01zm-.84-18.1c-.11 0-.44 0-.68.78c-.24.65-.4 1.37-.48 2.13c-.1.86-.15 1.67-.17 2.42l-.02.8c-.02.23-.02.53-.02.91c0 1.16.11 2.49.34 4.05c.25 2.11.63 3.62 1.11 4.49c.19.33.49.73.82.73c.27 0 .48-.41.61-.75c.18-.51.32-1.15.41-1.89c.09-.76.16-1.63.23-2.59c.03-.42.05-.95.05-1.6l-.02-2.22c-.03-.85-.13-1.94-.29-3.24c-.13-1.09-.37-2.06-.71-2.89c-.15-.37-.33-.66-.55-.87c-.2-.19-.4-.28-.62-.28l0 0z" fill="#D59629"/><path d="m100.91 47.15c-.27 0-.65 0-2.2-5.14c-.93-3.21-1.77-6.23-2.49-9v6.16c0 .67.06 1.83.19 3.44c.11 1.77.17 2.93.17 3.45c0 .16-.06.38-.38.57c-.21.12-.45.19-.72.19c-.66 0-.73-.43-.73-.61l.05-.72c.03-.51.05-.84.05-1c0-.84-.05-2.21-.15-4.05c-.1-1.92-.15-3.04-.15-3.44v-3.09c0-.5.02-1.25.07-2.24c.06-.85.1-1.59.1-2.21v-.15c0-.95.25-1.43.76-1.43c.32 0 .62.36 1 1.19c.53 1.16 1.22 3.27 2.04 6.27c.46 1.71 1 3.94 1.63 6.64c.01-.81.02-1.58.04-2.28l.05-4.2v-7.15c.08-.55.44-.83 1-.83c.33 0 .88.15.88 1.16v.15c-.11.26-.14.46-.14.7c0 .98-.02 2.47-.07 4.45c-.05 1.99-.07 3.49-.07 4.49v7.37c0 .29-.08.58-.23.85c-.23.38-.5.46-.69.46v0z" fill="#D59629"/><path d="m107.61 46.83c-.36 0-.68-.09-.95-.25c-.3-.18-.45-.46-.45-.79c0-.06.02-.12.06-.16c.21-.21.47-.85.47-2.67c0-.9-.07-2.25-.22-3.99c-.16-1.67-.24-3.01-.24-3.98l.05-1.34c.01-.38.03-.82.03-1.32c0-.43-.08-.99-.24-1.66c-.2-.75-.29-1.26-.29-1.57c0-.71.7-1.07 2.08-1.07h.36c.92 0 1.73.28 2.41.85c.54.48 1 1.16 1.37 2.04c.25.6.46 1.4.64 2.47c.1.94.14 1.64.14 2.16v1.91l-.05.19c0 .14.01.21.02.24c.02.08.03.17.03.29c0 .53-.08 1.16-.23 1.9c-.16.73-.38 1.48-.67 2.22c-.74 1.8-1.58 3.1-2.51 3.86c-.57.45-1.18.68-1.81.68l0 0zm.15-16.91c.01 1.43.11 3.57.29 6.35c.19 2.91.29 5.15.29 6.64v1.87c.43-.33.82-.77 1.16-1.3c.44-.68.78-1.44 1.01-2.27c.43-1.55.65-3.14.65-4.72c0-.86-.08-1.8-.24-2.82c-.17-.95-.54-1.83-1.1-2.61c-.25-.35-.57-.64-.96-.84c-.33-.17-.7-.27-1.1-.29l0 0z" fill="#D59629"/><path d="m118.09 46.76c-.99 0-2.3-.1-2.3-.95c0-.24.09-.8.95-.8h.29c.1.02.16.02.22.02c.1-.03.14-.1.14-.33c0-1.36-.08-3.24-.24-5.59c-.14-2.45-.22-4.33-.22-5.6c0-.45.01-.87.02-1.24l.03-1.23c0-.39-.02-.75-.04-1.04c-.12.02-.24.04-.37.04c-.49 0-.78-.29-.78-.8c0-.27.15-.51.45-.7c.26-.16.59-.28.99-.34c.69-.11 1.28-.17 1.75-.17c.25 0 .47.09.65.26c.18.17.27.38.27.62c0 .24-.07.43-.21.6c-.15.18-.34.28-.57.28c-.12 0-.21-.01-.3-.03l-.14.01c-.14 0-.18.03-.19.04c0 0-.04.05-.04.24c0 1.69.11 4.06.31 7.04c.19 3.12.29 5.51.29 7.1v.68c.08 0 .16 0 .26 0c1.08 0 1.24.67 1.24 1.07v.15c0 .07-.04.14-.1.18l-.6.41c-.04.02-.08.04-.12.04c-.2.02-.38.02-.63.02c-.54.03-.88.05-1.02.05l-.01-.01z" fill="#D59629"/><path d="m128.88 47.03c-.38 0-.75-.25-1.08-.75c-.02-.04-.04-.15-.04-.2c-.05-.83-.19-1.77-.43-2.8c-.24-1.04-.6-2.31-1.06-3.78c-.17-.52-.32-1.01-.46-1.48v7.94c0 .31-.06.54-.17.7c-.13.18-.37.27-.7.27c-.26 0-.47-.09-.62-.25c-.15-.16-.23-.37-.23-.62l.05-7.3c.03-2.1.05-4.45.05-7.08v-2.97c0-.26.06-.45.19-.56c.12-.11.33-.17.66-.17c.43 0 .84.09 1.2.25c.37.17.68.4.94.7c.52.59.87 1.31 1.02 2.14c.07.34.1.72.1 1.15c0 .25-.02.53-.06.83c-.04.3-.07.49-.09.57c-.03.17-.11.42-.23.75l-.22.62l-.3.7l-.24.62c.03.48.13 1.2.31 2.07c.18.89.39 1.71.61 2.45c.16.53.45 1.41.86 2.65l.7 2.13c.01.42-.01.66-.07.87c-.07.35-.33.55-.72.55l0 0zm-3.06-15.3c-.05 1.08-.07 1.92-.07 2.51c0 .22 0 .4 0 .56c.14-.16.28-.33.45-.54l.32-1.98c.01-.07.02-.17.02-.3c0-.44-.09-.97-.25-1.56c-.09-.26-.2-.49-.34-.66c-.02-.03-.05-.06-.08-.09l-.04 2.05l0 0z" fill="#D59629"/><path d="m14.41.34c0-.21-.1-.29-.21-.34c.15.7-.04-.21.21.34z" fill="#D59629"/><path d="m22.06 46.8c0 0-.01-.01-.01-.01c-.07-.03-.14-.06-.21-.09c.07.05.12.06.22.09h0z" fill="#D59629"/><path d="m30.23 47.4c0 0-.03-.02-.05-.02c.04.09.07.17.11.27l-.07-.24z" fill="#D59629"/><path d="m14.47 1.75c-.02-.04-.05-.08-.09-.11l.09.11z" fill="#D59629"/><path d="m13.93 39.88l.03.01c0 0-.02-.01-.04-.02c0 0 .01.01.01.01z" fill="#D59629"/><path d="m17.07 12.13c.06.13.11.2.16.24c-.01-.09-.05-.17-.16-.24z" fill="#D59629"/><path d="m17.4 12.41c0 0 .03-.02.04-.04c-.01 0-.03.01-.04.04z" fill="#D59629"/><path d="m17.23 12.37c.02.18-.06.37.11.55c-.02.12-.21-.1-.14.15c.19.18.27-.23.19-.64c0-.01.01-.02.01-.03c-.05.04-.1.04-.17-.03h0z" fill="#D59629"/><path d="m15.27 3.04c.02.02.04.05.06.08c-.01-.04-.03-.07-.06-.08z" fill="#D59629"/><path d="m4.41 34.82c-.07-.02-.13-.04-.18-.05c.18.22.1.01.18.05z" fill="#D59629"/><path d="m19.95 21.2c.01.04.03.1.08.2c-.02-.09-.05-.15-.08-.2z" fill="#D59629"/><path d="m6.92 36.01c.02.01.05.02.07.03c.02-.04-.01-.04-.07-.03z" fill="#D59629"/><path d="m14.68 1.01c-.11-.01-.15.23-.24.31c.26.26.17-.15.24-.31z" fill="#D59629"/><path d="m17.26 11.89c-.07-.04-.11-.01-.16-.13c-.02.12.11.21.17.34c.01-.04.04-.2 0-.21h0z" fill="#D59629"/><path d="m17.61 13.72c.13.34.4.88.51.89l-.51-.89z" fill="#D59629"/><path d="m18.58 17.25c-.07-.04-.12-.13-.17-.09c.1.29.16.34.17.09z" fill="#D59629"/><path d="m20.37 22.9c-.17-.05.18.38.15.54c.07-.16-.1-.42-.15-.54z" fill="#D59629"/><path d="m24.36 46.1l.09-.06l-.27-.11l.18.18z" fill="#D59629"/><path d="m5.53 35.05c.03.04-.12.13.15.22c-.29-.16.07-.1-.15-.22z" fill="#D59629"/><path d="m3.64 26.99l.06-.05l-.17-.13l.11.18z" fill="#D59629"/><path d="m10.06 29.82c-.15.02-.18.12-.18.22c.46-.21-.14.06.18-.22z" fill="#D59629"/><path d="m23.97 24.59c.03 0 .07-.02.13-.06c-.06.01-.1.04-.13.06z" fill="#D59629"/><path d="m32.62 33.74c0 0-.01 0-.01 0c-.04.03-.09.06-.12.1c.06-.02.08-.05.13-.11v0z" fill="#D59629"/><path d="m55.52 49.32c-.83-.13-1.92-.3-2.65-.57c-3.18-.68-6.23-1.91-9.49-2.55c.15.12-.06.18-.23.17l-.02-.07l-.29.07c-.24-.05-.1-.2.11-.17c-1.28-.33-2.43-.58-3.66-.95c-.14.19-.65-.16-.75.04c-.05-.06.01-.05.06-.09c-.89-.13-.95-.14-1.66-.62c-2.97-1-5.9-1.75-8.83-2.67c-.02-.09-.05-.18-.06-.27l.32.08c-.56-1.35-.9-3.33-1.53-5.03c1.15-.68 2.3-1.41 3.49-1.88c-.08.05-.19-.07-.06-.15c.28.23.42-.31.72-.32c.01.07-.09.15-.14.21c.68-.19 1.11-.63 1.76-.8c.5-.4 1.27-.48 1.57-.82c-.03.16.29-.04.44-.04c.23-.56 1.15-.43 1.54-.93l.01.07c1.5-.81 3.21-1.59 4.69-2.66c.43-.28.94-.51 1.46-.79c.51-.28 1.03-.62 1.43-1.09c.13-.19-.06-.13.05-.28c.23-.21.08.1.2.04c.18-.28.44-.54.71-.86c.27-.31.55-.68.72-1.15c-.01-.12.04-.4-.07-.34c.13-.24.22-.55.22-.9c0-.34-.08-.71-.23-1.04c-.3-.66-.76-1.09-1.1-1.48c.03.25-.12.17-.31.06c-.18-.12-.44-.3-.6-.34c-.15-.1-.13-.19-.05-.22c-.29-.13-.53-.2-.76-.28c-.29-.1-.58-.2-1-.34c-.37-.02-.48.14-.89.04c-.24-.26-.85-.08-1.23-.18c.09.2-.4.36-.78.27l.12-.28c-.61.09-1.35.02-2.12.05c-.38 0-.78.01-1.16.05c-.38.04-.76.12-1.1.23l-.12-.16c-.73.14-1.45.22-2.16.32c-.72.08-1.42.24-2.09.5c-.39-.04-1 .03-1.37.1c-.48.24-.66.26-.95.55c-.18.06-.32-.04-.41-.09c-.63.11-1.3.02-1.73.41l-.06-.13c-.46.28-1.11.65-1.71.66c-.12.17-.65.4-.35.47c-.21.1-.21-.18-.38.04l.14-.26c-.21.06-.41.13-.61.19c-.31-.6-.64-1.33-.72-1.99c-.19-.18-.49-.94-.53-.54c-.13-.3.16-.27-.09-.54l.29.23c-.23-.78-.48-1.49-.74-2.19c.12-.05.26-.11.42-.19l.04.02c.29-.17.51-.1.81-.29l-.03-.05c.29-.27.88-.04.96-.38l.33.04c.25-.38.57-.14.92-.5l-.03.06c.61-.11 1.09-.71 1.38-.61c.47-.22 1.02-.48 1.04-.7c.13.03.11.17.06.26c1.79-.78 3.86-1.48 5.41-2.32c.1.01.01.08-.03.14c.94-.59 2.18-.52 2.78-1.21l.21-.27c.27-.02.29.11.5.1c.16-.19.92-.37.98-.57c.13.03-.01.11.01.16c.48-.13.93-.59 1.4-.7l-.11.13c2.44-.54 5.54-1.45 7.28-2.58c.49-.27.32.14.54.02c.91-.55 2.01-.93 3.06-1.35c1.05-.41 2.07-.93 2.68-1.69c.56-.48.76-.95.82-1.26c.06-.32 0-.48 0-.48c-.43.63-1.03 1.15-1.71 1.56c-.68.42-1.43.75-2.21 1.04c-1.59.57-3.22 1.09-4.94 1.58c-1.1.48-2.55 1.11-3.62 1.41c-4.36 1.67-8.96 2.79-13.4 4.66c.26-.02.05.18-.17.3l-.08-.04l-.3.27c-.33.14-.26-.09.02-.22c-.89.35-1.74.68-2.58 1.01c-.84.34-1.66.68-2.54 1c-.01.11-.21.2-.4.29c-.17-.43-.35-.86-.53-1.3c.07-.57-.57-1.59-.77-2.59c-.32-.51-.48-1.54-.9-1.86l.12-.07c-.24-.75-.59-1.75-.87-2.75c-.16-.58-.36-.51-.59-.94l.12-.07c-.26-.46-.51-.52-.71-.66c-.04-.41-.15-.42-.2-.83c.2.34.46.6.72.78c-.16-.62-.71-1.11-.63-1.55c-.13-.51-.31-.87-.49-.88c.04-.04-.01-.33.13-.11c-.13-.37-.24-.61-.39-.81c.02.07.04.18.07.26c-.2-.13-.32-.51-.5-.36c.12.17.16.17.23.42c-.18-.05-.44-.68-.37-.88c.08-.24.39.35.37.02l-.65-.83c.12.2.12.47-.02.43l.23.38l-.15.03c.3.67.32 1.2.69 1.88l.05-.32c.16.42.51.77.47 1.21c-.12-.17-.15-.01-.23.02c.06.09.16.17.17.3l-.32-.1c.4.07.53 1.09.65 1.26l-.07-.04c.11.66.1-.16.26.26c.09.37-.23.23-.21.6c.23.63.8 1.65.85 2.42c.24.55.55 1.14.84 1.61c.17.5-.27.06.02.53c-.11-.02-.18.08-.24.15c.12.03.31.95.4.47c.2.75.46 1.58.78 2.34c-.1-.25-.29-.27-.29-.02c.28.31.58.9.76 1.57c.16-.07.09-.28.27-.27c.06.09.18.22.23.39c-.1.11-.27.17-.28.42c-.06.03-.12.06-.17.09c-.1-.27-.13-.59-.24-.36c-.3-.18-.67-1.23-.62-1.51c-.4-.44.11.42-.15.39c.18.46.37.64.65 1.35c.12-.03.05-.28.26.02c.03.04.05.08.08.12c-.08.04-.16.07-.23.1c-.01-.04-.01-.07-.02-.11c-.07-.01-.07.06-.05.14c-.38.16-.7.22-1.42.34c-1.17.48-2.34.93-3.47 1.47c-.57.26-1.13.53-1.7.79c-.56.28-1.11.56-1.67.84c-1.11.55-2.19 1.17-3.29 1.77c-.55.29-1.08.63-1.62.94c-.54.32-1.08.61-1.63.96c-.56.36-1.12.75-1.66 1.23c-.54.47-1.07 1.02-1.5 1.7c-.43.68-.75 1.49-.83 2.34c-.09.84.04 1.68.3 2.42c.26.75.64 1.41 1.09 2.01c.46.6 1 1.11 1.56 1.55c1.12.88 2.33 1.48 3.47 2.07c.85.06 1.72.71 2.68.88l-.1.06c.77.24.86.5 1.67 1.1c.07-.1.35.16.32-.09c.39.02.41.55.89.72c-.02.07.05-.11.11 0c1.25.42-.27-.02 1.06.95c2.02 1.06 4.14 2.06 5.95 3.3c-.12-.06-.09-.23.1-.12c.01.39.68.31.94.62c-.06.04-.23-.04-.33-.06c.78.64 1.59.9 2.32 1.52c.83.35 1.56 1.15 2.15 1.33c-.19.03.28.3.4.46c.76.03 1.35 1.07 2.14 1.33l-.06.04c.97.69 1.92 1.47 2.81 2.31c.3.28.59.56.86.85c.22.55.6 1.09.79 1.66c.01-.21.37-.1.58.29c.4.35-.16.3-.06.75c.18.16.4.51.48.67h-.04c.04.03.07.07.11.11c-.01.12-.01.25-.04.37l.28-.06c.09.14.17.3.21.45l-.04-.04c.02.05.04.1.06.16l.87 2.54l.64-2.87c.03-.13.06-.27.09-.4c.01-.08.01-.16.01-.24l.15-.03c-.11-.23-.23-.46-.35-.69c-.06-.22-.13-.43-.23-.49c.01-.04.04.01.05-.08l-.15.02l-.01-.02c-.04-.19-.07-.38-.12-.57c.11.1.18.1.28.25c-.15-.66-.22-.15-.43-.43c-.29-.34-.15-.39-.2-.61c.16.12.13.3.2.39c.22.17-.07-.27-.01-.31c-.05-.09-.22-.04-.36-.32c-.12-.26-.55-.74-.37-.78c-.13-.08-.23-.19-.34-.28c-.06-.16-.13-.32-.2-.48c-.1-.08-.22-.32-.27-.2c-.19-1.07-1.05-2.29-1.25-3.39c-.18.48-.4-.54-.6-.88c-.06-.21.02-.26.1-.22c-.31-.76-.46-1.17-.67-2.13c-.17-.42-.39-.48-.5-1.02c.03-.1.02-.23-.01-.36c.22.03.1-.3.51-.04l-.16.09c.36-.02.6.3 1.03.22c-.01.07-.1.07-.16.09c.36.05.73.19 1.08.11c.02.09-.05.15-.2.17c.31.2.43-.11.72.06c.09.04.22.19.16.18c.18-.06.65.07.83.08c.02.09.13.16.3.3c1.7.49 3.43 1.02 5.18 1.26c.21.33-.44.05-.31.27c.05-.22.3.02.84.09l.01.04c.23.01.32.18.57.18l.01-.06c.29-.07.48.43.69.19l.15.21c.31-.18.37.18.73.06l-.05.04c.38.22.93-.04 1.04.2c.36.05.78.11.89-.06c.06.09-.02.2-.09.25c1.34.25 2.8.67 4.04.7c.05.06-.03.07-.08.1c.79-.04 1.44.61 2.09.31l.24-.13c.16.11.11.23.23.33c.17-.09.68.13.8-.01c.06.09-.06.09-.06.14c.33.12.78-.05 1.09.08l-.12.06c1.6.71 3.73 1.45 5.2 1.36c.39.02.11.28.28.29c1.5-.01 3.1.89 4.52.64c1.05.08 1.49-.43 1.49-.43c-2.52-.31-4.66-1.01-7.02-1.87l-.02-.02zm-33.66-9.22l-.16-.04c-.04-.01-.02-.01-.03-.01h-.01l-.1-.01c-.07-.01-.17-.01-.23-.08c-.05-.07-.02-.16.03-.21c.03-.03.06-.06.1-.09l.05-.04l.03-.02l.02-.01l.04-.02c.27-.57.99-.79 1.41-1.36l.01.11c.41-.39.62-.3 1.29-.51c-.05-.11.22-.15.04-.29c.09-.18.31-.09.53-.09c.33 1.28.77 2.83 1.41 3.93c-1.37-.4-2.74-.78-4.11-1.17l-.31-.09l0 0zm1.55-15.95c.34-.11.24.12.41.19c-.06.05-.31.16-.32.05c-.37.32.3.29.05.51c.35-.01.28-.2.43-.32c-.11.01-.01-.18-.1-.22c.42-.65.46.22.98-.02c-.21-.26.61-.62.12-.83c.12-.09.27-.21.41-.22c-.09.24.29.09.08.35l.2-.06l-.23.33c.26.08.66.11.8.17c.27-.16-.14-.17.18-.31c-.09.13.14.17.29.13c-.32-.01-.08-.29.1-.38c.29-.07.57.06.55.12l-.24.24c.18-.2.11.06.32-.06c.04-.13.13-.34.17-.5c.18-.1.34.02.4-.02c-.09.06-.18.13-.27.2c.38-.14.15.29.54.13l.07-.18c.09.01.14.07.08.15c.04-.13.27-.15.37-.21l.05.1c.15-.1.32-.38.56-.21c-.21-.22-.21.04-.52-.02c-.22-.15.25-.23.31-.28c.03.28.44-.06.65-.1c.14.08.25.11.33.16l.05-.2c.13.34.4-.15.65-.07c-.1.13-.06.27.11.29c-.26-.23.31-.38.22-.55c.43.02-.05.35.1.51c.18-.23.48.06.59-.22c-.32-.05.02-.17.07-.3c.39-.02-.05.12.23.19c.16-.05.34-.28.08-.33c.23.03.45-.25.73-.12c.12.16-.46.13-.3.23c.54-.05.22-.44.72-.55c-.22-.06-.05-.39.19-.5c.57.03-.23.12 0 .31l.22-.05c.33.27-.61.53-.29.74c.07-.04.15-.08.23-.12c-.05.09-.11.24 0 .31c.04-.21.55-.09.59-.14c.04-.17-.19.06-.16-.07c.25-.06.34-.36.74-.28c-.21.13.1.23.01.33c.2.06.05-.21.32-.13l-.02.1c1.01-.02 2.27-.08 3.15-.47c.16.17.49.19.99.32c-.22-.06 0-.18.12-.2l.23.21c.28.13.65-.03.92-.11c.04.05.05.1.05.15c.22.16.26-.07.36-.1c.05.05.09.11.13.17l.06-.13c.25-.03.55.09.45.29c.1-.02.19-.02.11-.12c.19.19.71.4 1.03.57c-.11-.15-.06-.2 0-.32c.18-.17.05.09.26.07c-.05.07.03.25-.16.19c.21.54.64.77.52 1.23c.02.1.06.08.11.14c-.16.13-.22.3-.31.5c-.09.2-.21.42-.4.56c.14-.01.26.28.07.49c-.09.35-.28-.11-.56-.01c-.04.16-.23.35-.32.41l-.01-.03c-.06.19-.25.41-.47.46l.02-.03c-.15.09-.38.1-.52.21c.04.2-.39.34-.4.54c-.03-.01-.01-.04-.07-.04l.07.14l-.35.12c.04-.09.02-.16.08-.25c-.38.11-.04.19-.17.37c-.18.24-.24.1-.39.11c.06-.12.19-.07.23-.13c.07-.18-.17.04-.22-.03c-.05.02.02.2-.17.27c-.16.07-.49.32-.53.15c-.09.15-.25.22-.31.34c.14-.04.39-.13.47-.05c-.1.08-.31.25-.38.21l.07-.09c-.07.09-.43.22-.18.27l-.34-.06c-.02.16-.27.28-.45.42c-.09-.15-.02-.4-.41-.24l-.23.32c-.16.1-.22.09-.24-.01c-.61.21-.36.73-.88.83c.1-.28-.07-.22-.3-.16c.01.04.02.1-.06.16c.1.05.05-.19.27-.15c.11.09-.15.17-.22.26c-.6-.19-1.39.59-2.14.73c.16.2-.26.21-.35.36c-.07-.25-.35.23-.6.18l.21.18c-.46.07-.48.67-.87.53c-.26.04-.01-.2.07-.29c-.44-.09-.73.62-1.11.47c.02.11.19.21-.04.43c-.27.01-.76.11-.74.05c-.16.13-.17.23-.4.25c-.01-.07.07-.12.12-.18c-.34.1-.54.32-.77.54c-.26-.09-.76.27-1.16.36c-.09.32-.62.21-.51.5c-.01-.03-.07-.05-.1-.05c-.09.15-.11.38-.27.48l-.04-.21c-.07-.25-.5.2-.61.11c.22.08-.19.1-.13.24l-.13.12c-.59-1.74-.96-3.51-1.74-5.13c-.07-.54-.26-1.39-.42-1.9c-.35-.65-.4-.91-.77-1.31c-.1-.26-.02-.45.01-.57c-.12-.49-.2-.98-.31-1.43c.04-.01.07-.03.12-.05c.05-.15-.05-.05-.14-.04c-.02-.06-.04-.12-.06-.19c.08-.07.23-.14.36-.2l-.03 0zm-2.3.97c-.01-.23.1-.2.21-.08c-.07.03-.15.06-.21.08zm-1.7-6.14c-.14.12-.21-.08-.28-.31c.04-.02.08-.04.12-.06c.05.1.11.21.16.37zm-6.42 20.47c.06.02.12.05.2.09c-.08-.02-.15-.05-.2-.09zm15.85 10c0 0-.02-.02-.03-.03c.01 0 .01 0 .02 0c0 .01 0 .02.01.03zm-.06-.43c0 0 0 .02 0 .03l-.02-.02c-.03.02-.1.05-.21-.02c.01.1.13.06.24.13c0 .06.01.11.02.17c-.1-.04-.25-.17-.35-.21c-.25-.77-1.71-1.4-2.48-2.16c-.08.24-.44-.21-.67-.24c.2-.18-.53-.29-.69-.57v.3c-.47-.47-1.1-.24-1.28-.71c-.27-.26.2-.09.35-.05c-.28-.5-1.26-.52-1.43-.99c-.09.06-.05.28-.47.13c-.24-.28-.76-.76-.68-.76c-.27-.11-.38-.08-.6-.32c.06-.04.18.02.28.05c-.4-.32-.8-.43-1.22-.58c-.13-.31-.94-.68-1.38-1.06c-.4.04-.76-.56-.95-.31c.03-.02-.01-.09-.04-.13c-.23-.03-.48.05-.72-.07l.18-.13c.19-.19-.65-.43-.65-.59c.12.27-.27-.16-.36-.03l-.31-.1c-.47-.21-.1.06-.67-.23c-.32-.17.01-.27.11-.18c-.21-.24-.5-.34-.79-.45c.1.05.12.09.01.07c.01-.03-.01-.06-.04-.09c-.11-.04-.22-.09-.32-.15c0 0 0 0 .01-.01c.12.05.23.1.31.14c-.06-.06-.17-.12-.27-.18c0-.02-.04-.04-.08-.05c-.09-.05-.17-.11-.21-.17l.15-.1c-.19-.11-.81-.26-.83-.19c-.69-.54-2-1.14-2.55-1.33c.12.02.15-.02.03-.02c-.28-.12-.64-.16-.61-.26c-.29-.08-.18-.23-.57-.45c.01-.04-.13.11-.01.15c-.55-.57-1.59-.68-2.32-1.24c.07.02.2-.01.28-.02c-.64-.25-1.23-.5-1.85-.67c.09-.02.11-.09.27-.05c-.32-.19-.67-.4-.93-.48c.01 0 .03.01.05.03c.19.31-.39.08-.61-.15l.01-.03c-.36-.3-.44-.25-.77-.58c-.13-.27.2.15.2-.01c.05-.13-.1-.34-.25-.54c-.15-.2-.31-.4-.32-.44c-.11-.06-.23-.16-.27-.11c-.24-.27.04-.21-.09-.42c-.29-.21-.56-.45-.81-.74c.08.01.12-.37.28-.1c-.23-.69-.54-1.1-.65-1.63c.03-.12.05-.38.1-.64c.05-.26.12-.53.18-.66c.09-.03.06.02.02.09c-.04.07-.08.17-.04.22c.1-.11.2-.21.3-.31c-.2.48.24.04.22.33c.04-.19.18-.49.41-.77c.22-.28.5-.55.73-.74c-.24.05-.14-.13.03-.32c.17-.2.39-.41.3-.5c.55-.49.42-.05.67-.17c.55-.52 1.21-.83 1.79-1.21c0 0 .02.02 0 .06c.51-.39 1.43-.85 1.86-1.37c0 .06.07.07-.05.19c.64-.25-.05-.35.72-.59l-.1.2c.37-.34.89-.35 1.29-.79c.05.05-.05.13-.1.2c.42-.3.94-.55 1.25-.89c.1.04.07.14-.08.28c.5-.14.39-.45.84-.59c.12-.05.4-.06.32-.02c.16-.21.78-.52.99-.67c.1.05.27-.01.57-.05c1.15-.54 2.31-1.09 3.48-1.61c.66-.31 1.32-.62 1.98-.93c.15.3.25-.02.38.61l-.14-.05l.22.43c.12-.03.26-.18.11-.56c.38.16.16.34.42.93c.23.14-.1-.26.06-.32c.13-.11.28.31.4.61c.17.5-.1.32-.14.56c-.06-.09-.21-.46-.1-.46c-.38-.56-.26.39-.53 0c.06.51.25.43.39.66c-.03-.16.19.01.22-.12c.73.67-.16.64.17 1.4c.24-.26.76.92.89.24c.11.17.26.39.29.6c-.27-.15-.04.4-.35.09l.08.25l-.02.01l-.34-.33c-.01.15-.02.32-.02.49c-.33.16-.67.32-1.01.5c-.43-.08-1.09.48-1.78.65c-.32.3-1.05.44-1.2.84l-.08-.12c-.51.22-1.16.58-1.84.86c-.39.16-.29.36-.54.58l-.09-.11c-.27.26-.25.5-.29.69c-.29.06-.27.16-.56.22c.2-.2.32-.45.38-.71c-.42.18-.63.7-.97.67c-.35.16-.57.37-.49.55c.04-.1-.27.04-.13-.15c-.23.15-.37.26-.47.42c.05-.03.12-.05.17-.09c-.04.2-.27.33-.1.48c.09-.12.07-.16.24-.24c.02.17-.36.45-.53.41c-.2-.05.12-.39-.11-.34l-.43.77c.06-.2.34-.27.37-.11l.2-.25l.07.14c.39-.33.77-.38 1.15-.77l-.25-.03c.26-.17.4-.52.74-.51c-.09.12.04.14.09.21c.04-.06.08-.15.17-.18l.02.3c-.07-.37.65-.53.74-.65l-.01.06c.45-.13-.15-.09.12-.25c.25-.1.23.2.49.18c.39-.25 1-.78 1.55-.84c.34-.24.7-.52.99-.79c.33-.16.1.26.38-.01c0 .1.09.17.16.24c-.01-.11.63-.28.26-.37c.5-.19 1.07-.39 1.56-.66c-.17.09-.15.26.03.28c.17-.25.55-.53 1.01-.65c-.07-.16-.22-.1-.23-.28c.06-.05.13-.16.25-.19c.06.07.11.16.19.23c-.01.08 0 .2.03.31c-.09.03-.13.06-.02.14c-.05.14-.24.28-.46.38c-.21.1-.43.17-.54.13c-.25.37.28-.09.31.16c.3-.15.4-.32.88-.54c-.04-.12-.21-.07-.02-.24c.03-.04.06-.06.09-.09c.06.07.12.15.17.23c-.05 0-.1 0-.16.02c.01.1.1.06.18.02c.13.42.05.81-.02.76l-.3-.36c.24.27-.04.16.13.46c.14.06.37.2.55.26c.13.26.05.49.1.58l-.26-.39c.22.55-.27.22-.01.77l.2.1c.01.12-.04.2-.13.11c.14.06.22.39.3.52l-.09.07c.14.22.46.46.35.81c.18-.31-.09-.29-.1-.75c.11-.32.3.36.35.44c-.28.05.17.63.25.93c-.05.2-.04.36-.07.48l.21.06c-.31.21.25.56.24.93c-.16-.14-.28-.07-.27.17c.16-.39.47.42.61.28c.08.62-.37-.05-.49.18c.28.24.06.7.37.82c-.05-.45.18.02.32.08c.13.55-.14-.06-.12.35c.1.22.38.46.35.09c.04.33.38.62.33 1.02c-.12.19-.26-.65-.32-.41c.2.76.5.27.75.96c0-.33.37-.12.56.2c.15.8-.19-.31-.31.04l.12.3c-.16.51-.72-.79-.83-.32l.19.31c-.1-.05-.27-.12-.31.04c.13.02.2.3.25.53c-.04.06-.06.11-.05.12c-.6.16-1.43.73-1.75 1c.05-.07.04-.12-.01-.04c-.17.12-.31.36-.38.28c-.15.16-.22-.01-.5.13c-.02-.03.04.16.1.1c-.29.02-.55.21-.8.42c-.13.1-.25.21-.4.31c-.17.11-.34.22-.54.3c.05-.05.07-.17.09-.24c-.55.43-.95.86-1.01 1.29c-.04-.05-.13-.06-.09-.17c-.2.25-.26.61-.19.82c0-.01 0-.02 0-.05c.19-.28.21.2.32.41l-.03.01c.09.16.18.22.27.27c.09.05.17.09.34.17c.1.15-.2-.06-.23.02c-.09.09.05.23.25.33c.2.1.44.17.47.2c.14-.01.3 0 .32-.07c.33.04.06.18.29.24c.2-.02.34-.06.48-.11l.39-.11c-.05.06.16.28-.08.29c.53.13.91-.05 1.28-.1c.14.09.68.15.85.2c.04.15-.15-.05-.22.04l.21.23c-.35-.09-.03.24-.24.28c.3 0 .93.3 1.33.48c-.2-.37.6.04.66-.21c.5.1.18.28.35.39c.23.02.45.08.67.15c0 .02.01.04.01.06c0-.02 0-.04 0-.06c.06.02.12.04.18.06c.02.04.04.07.06.11l-.09.4c.01.45.37.95.6 1.3c-.01.08-.06.12-.1.15c-.01.41.23.35.32.48l-.05.29l.15.01c.2.35.33.85.1.87c.09.13.18.26.18.06c-.01.42.36 1.43.67 2.07c-.06-.33.01-.33.13-.4c.26.01.01.17.24.38c-.08.04-.05.37-.23.07l.02-.01zm.18-5.32c0 0 .02 0 .03 0c-.01.01-.01.02-.02.04c0-.01-.01-.02-.01-.04z" fill="#D59629"/><path d="m43.34 20.97c-.02 0-.03.01-.05.01c.07.03.15.07.23.11l-.19-.12v0z" fill="#D59629"/><path d="m18.02 26.49c0 0-.02-.02-.03-.03c0 .01.01.02.03.03z" fill="#D59629"/><path d="m18.04 26.66c.12-.02.28.06.37-.1c.09.02-.03.2.14.13c.09-.18-.21-.26-.5-.19c-.02-.01-.02-.01-.03-.02c.04.05.06.11.02.17h0z" fill="#D59629"/><path d="m17.9 26.81c.08-.06.12-.1.15-.15c-.06.01-.11.04-.15.15z" fill="#D59629"/><path d="m20.22 38.18c.02-.02.04-.04.06-.05c-.03-.04-.05 0-.06.05z" fill="#D59629"/><path d="m11.75 28.78c.01-.02.02-.04.04-.06c-.02.02-.05.03-.04.06z" fill="#D59629"/><path d="m18.94 40.12c.02.05.04.11.07.14c.06-.23-.05-.07-.07-.14z" fill="#D59629"/><path d="m10.77 29.69c.1-.26-.17-.14-.31-.18c.04.1.23.11.31.18z" fill="#D59629"/><path d="m17.69 26.62c-.02.06.02.1-.06.15c.09.02.13-.1.21-.15c-.03-.01-.15-.04-.15 0v0z" fill="#D59629"/><path d="m19.49 25.88l-.56.45c.22-.11.57-.34.56-.45z" fill="#D59629"/><path d="m21.27 25.74c.15-.06.2-.1.12-.13c0 0 0 0 0 0c-.06-.09-.05-.13-.07-.21l-.1.11c.02.04.04.08.07.11c-.02.05-.05.09-.02.12z" fill="#D59629"/><path d="m25.52 24.28c-.11-.09-.29.05-.37.09c-.03.16.26-.13.37-.09z" fill="#D59629"/><path d="m27 23.71c-.06.04-.09.03-.15.04l.08.11c.09-.03.18-.13.06-.15z" fill="#D59629"/><path d="m32.76 31.53l-.16.13l.17-.03l-.02-.1z" fill="#D59629"/><path d="m19.05 39.06c-.16.25-.12-.04-.24.15c.04-.03.16.07.24-.15z" fill="#D59629"/><path d="m25.61 42.95l.02-.21l-.08.19l.06.02z" fill="#D59629"/><path d="m29.77 6.96c-.11.13.04-.04.07.07c.07-.04 0-.06-.07-.07z" fill="#D59629"/><path d="m22.73 12.34c0 0 .01-.02.01-.03c-.02 0-.04-.01-.06-.01l.05.04h0z" fill="#D59629"/><path d="m29.71 7.57c0 0 .01.02.02.02c.01-.01.01-.02-.02-.02z" fill="#D59629"/><path d="m20.9 6.08c0 0 0 0 0-.01h0v.01h0z" fill="#D59629"/><path d="m28.08 8.71c-.04.01-.18-.04-.11.04c-.06-.02-.13-.1-.17-.08c.09.09.29.15.38.12c.02 0 .02.01.04.01c-.06-.03-.11-.06-.14-.09z" fill="#D59629"/><path d="m28.25 8.81c0 0-.02-.01-.03-.01c.01 0 .02.01.03.01z" fill="#D59629"/><path d="m21.38 4.95c0 0 0 .01 0 .01c.04.02.02.01 0-.01z" fill="#D59629"/><path d="m19.27 8.57c-.13 0-.07.12-.12.18c.42.01.01.43.32.5l-.06.02c.24.49.5 1.07 1 1.39c.12.1.18.28.26.45c.09.16.2.32.39.38c.09 0 .1-.1.16-.09c.06.06-.08.09-.08.15c.24-.02.3.28.5.39c.06-.04.12-.02.15-.11c.04.17.17.24.31.27c.15.04.29.06.36.21c.06-.34.2-.11.31-.16c.04.03.01.11-.03.17c.19.02.28.06.47.2c.11-.01.18-.18.28-.1c.02.25.24.07.34.17c.01-.2.17-.34.27-.24l-.07.28c.2-.05.42-.02.66.01c.23.02.49-.01.68-.2l.05.16c.21-.13.43-.15.64-.22c.21-.06.42-.15.55-.38c.13.05.33.04.43-.02c.08-.2.13-.21.12-.45c.04-.04.13.07.18.11c.18-.06.47.04.45-.26l.09.11c.04-.21.11-.47.33-.45c-.05-.13.04-.27-.12-.35c.02-.06.19.15.13 0l.09.19c.16-.1.27-.24.36-.39c.09-.15.16-.31.21-.49c.13.03.18-.04.22-.13c.04-.1.06-.21.17-.26c-.05-.16.21-.26-.02-.47l.13.06c.04-.07.09-.15.14-.23c.04-.09.1-.18.16-.27c.08-.1-.12-.17-.16-.28l.14.04c-.06-.12-.26-.21-.39-.28c.11-.05.01-.08.13-.13c.06.09.19.18.37.29c.09-.11-.23-.31 0-.34c.07-.1.02-.19-.16-.23c.06.03.12-.05.2.02c.01-.07-.01-.13-.07-.18c-.01.01-.02.03-.02.04c-.14-.06-.12-.13-.33-.14c.05.04.08.05.06.09c-.15-.04-.17-.16-.03-.18c.16-.02.24.11.33.06c-.12-.09-.24-.17-.37-.24c.12.05.02.11-.12.08l.09.09l-.15-.02c.04.13-.13.2-.03.34l.16-.02c-.01.07.2.2 0 .23c-.05-.05-.13-.04-.22-.06c.02.02.08.06.05.07l-.25-.09c.34.11.07.23.12.27l-.05-.02c-.13.08.15.02.13.1c-.06.05-.28-.06-.4-.04c-.03.1.1.35-.13.38c0 .1.04.24.11.38c-.04.08-.24-.13-.17 0c-.08-.05-.17-.09-.26-.12c.09.06-.09.12.15.18c-.11.08-.19.19-.23.32c.01-.05-.12-.15-.21-.17c.1.14.11.28.01.34c.14.11.16.08.28.19c.01.03.05.1.03.12c-.15-.1-.36-.28-.43-.21c-.2-.2.13-.1-.11-.24c-.15-.18-.07-.3.06-.25c-.15-.2-.06.03-.24-.12c-.02.06.06.16.02.27c.09.08.13.06.17.16c.12.24-.22-.02-.24-.01c-.01-.03 0-.05-.02-.08c-.11-.01 0 .12-.05.16c-.25-.21.04-.1-.09-.26l-.2-.12c-.09.05.18.2.05.22l-.07-.09c0 .03.01.07.01.1c.09.09.22.21.24.15c.2.25 0 .07-.03.18c.1.15.02-.04.14.09c.12.11.07.16.05.21c-.06.06-.16-.11-.26-.18c-.01-.03.02-.09.08-.01c-.06-.2-.28-.24-.32-.38c-.15-.04.1.2.03.22c-.01-.11.11.1.17.15c.22.45-.28-.21-.32-.08c.22.22.13.44.41.65c.01.06.01.15-.03.14c-.1-.19-.14-.1-.21-.3l-.04.02l-.09-.24c-.12-.09-.26-.16-.34-.23c0 .11.13.16.1.24c-.04-.1-.12-.16-.15-.14c.1.04.16.25.15.32c-.05.04-.2-.11-.21-.16l-.04-.18c.04.15-.06-.06-.06.02c.04.11.11.28.17.42c-.01.07-.11-.06-.11-.03v-.14c-.05.08-.17-.28-.2-.17l.06.16c-.02-.02-.06-.08-.08-.14c.04.11-.01.11-.01.16l-.05-.1c0 .08.06.32-.06.14c.13.22.04-.02.14.06c.12.16.02.19.02.22c-.11-.26-.09.01-.14.02c-.06-.08-.1-.12-.13-.17l.05.18c-.13-.33-.05.11-.14.02c-.01-.11-.06-.25-.11-.28c.12.24.03.34.1.51c-.11-.07-.08-.33-.16-.5c.02.21-.12-.11-.08.16c.08.06.04.17.05.28c-.09 0-.02-.12-.09-.2c-.02.04-.02.26.05.32c-.06-.05-.06.22-.15.07c-.05-.16.09-.09.03-.21c-.11.01.02.41-.08.49c.06.08.07.38.02.49c-.15-.05.05-.11-.04-.31l-.05.04c-.11-.28.08-.5-.03-.72l-.04.11c0-.08-.01-.23-.04-.31c.02.2-.1.07-.11.12c.01.17.03-.06.04.08c-.05.05-.04.34-.14.24c.04-.12-.04-.23-.02-.33c-.04-.07 0 .2-.06.11v-.1c-.21-.01-.44-.01-.68.39c-.01-.18-.09-.2-.17-.34c.04.06-.03.17-.06.19l-.01-.2c-.04-.12-.15.04-.24.13c0-.04.01-.09.02-.15c-.02-.14-.09.09-.12.13v-.15l-.04.13c-.08.06-.14 0-.06-.21c-.03.03-.07.06-.06.14c-.01-.15-.15-.19-.27-.16c.02.07-.01.13-.06.26c-.11.21-.01-.05-.1.06c.03-.08.03-.18.1-.22c.01-.34-.27-.18-.39-.34c-.05.01-.06.05-.11.1c.03-.26-.21-.12-.24-.28c-.04.1-.23.3-.3.26c-.18.11.15-.23.17-.36c-.08.05-.14.02-.15 0l.02-.02c-.1.05-.19.05-.16-.05h.01c-.02-.05.04-.16 0-.18c-.14.12-.13-.04-.26.06c.01-.02.03-.02.05-.06l-.12.1l.01-.12c.06-.03.11-.07.16-.08c.02-.13-.13.07-.22.1c-.13.02-.01-.07.02-.13c.08-.03 0 .06.04.05c.12-.06.01-.06.08-.12c0-.01-.16.11-.15.05c-.01-.04-.1-.09.04-.18c-.09.03-.1-.01-.18.01c-.01.04-.01.12-.09.19c-.04-.01-.11-.03-.05-.09l.05-.01c-.05.01-.06-.1-.16.03l.14-.18c-.12.06-.15 0-.2-.03c.15-.1.33-.17.32-.27l-.19.02c-.04-.03-.01-.06.09-.1c.01-.16-.49.1-.41-.07c.21-.05.2-.09.23-.16c-.03.01-.1.04-.11.02c-.08.05.14-.04.04.06c-.11.07-.1 0-.15-.01c.35-.27-.03-.35.11-.57c-.23.09-.1-.04-.19-.05c.25-.06-.07-.07.07-.16l-.24.09c.12-.13-.42-.08-.13-.21c.06-.07.18-.02.23-.01c.25-.12-.26-.16.04-.27c-.1.01-.27.06-.37 0c.1-.07.22-.19.27-.19c-.05-.04-.13-.05-.05-.1c.07 0 .08.02.11.03c.06-.08-.05-.13-.15-.2c.19-.05.09-.18.21-.26c-.24-.06.1-.13-.21-.16c.03 0 .07 0 .09-.01c-.09-.04-.28-.09-.3-.13l.2.04c.25.04.07-.11.2-.11c-.18.01.01-.05-.15-.07l-.06-.06c-.04-.09-.1-.02-.11-.13c0-.06.23.02.21.04c.11-.02.06-.08.03-.14c0 .02-.02.02-.06 0c.03 0 .04 0 .05 0c-.01-.02-.02-.04-.02-.06c0 0 .01 0 .01 0c.01.02.01.04.01.05c.02-.01.03-.02.04-.04c.01 0 .01 0 0-.01c.01-.01.02-.03.05-.03l.15.05c.01-.03-.14-.16-.21-.18c.17-.1.13-.38.06-.48c0 .04.11.1.05.05c-.01-.06-.11-.16-.02-.12c-.04-.07.12.01.16-.05c.03.01-.14-.08-.13-.05c.27 0-.02-.33.21-.37c-.04-.01.06.07.1.11c-.01-.13-.02-.26-.12-.45c.05.05.11.09.13.13c.04-.06.06-.16-.03-.28c-.09 0 .07.06.04.08c-.15-.04-.2-.21-.14-.23l.03.02c.05-.07-.02-.13.03-.19c.1.02 0 .06.1.11c.21.15.24-.03.28-.02c-.03-.05-.04-.1-.09-.15c-.01-.09.13.08.15.04c-.08-.16-.15-.32-.22-.49c0 .06.2.13.22.24c.07-.11-.06-.39-.1-.57c.06 0 .11-.16.15-.2c.1.09-.04.02.02.11l.15.08c-.06.07.15.18.17.29c.01-.11.19-.15.31-.16c-.22-.21.05-.19-.09-.41c.09-.11.16.15.23.17c.06-.16.22-.14.31-.22c0 0 .02.03.02.05c.06-.13.26-.11.29-.37c.01.05.04.1.02.14c.14.05-.09-.32.1-.22l.01.13c.05-.15.19.06.24-.16c.02.07.01.09 0 .13c.07-.08.18-.07.22-.27c.03.08.03.15.01.22c.11.07.05-.24.15-.18c.02.01.09.11.07.12c.02-.12.15-.13.19-.18c.02.08.06.1.12.19c.45-.04.88.02 1.37-.12c.02.27-.13.15-.12.33c.04-.22.09-.06.23-.09v.04c.06-.03.06.11.13.06l.01-.06c.11-.12.06.31.17.05v.17c.14-.22.06.11.21-.06l-.02.04c.05.14.31-.18.27.02c.1 0 .21 0 .32-.16c-.01.07-.08.18-.12.23c.36.06.64.32 1.07.31c-.01.04-.05.06-.09.09c.31-.04.13.44.55.23l.17-.09c-.02.09-.12.17-.14.24c.12-.05.15.11.29.02c-.04.06-.08.06-.12.09c.04.09.31.01.32.13l-.08.02c.02.28.04.58.11.82c.06.24.2.43.45.54c.1.07-.21.12-.18.16c.23.12.22.35.25.55c0 .21.05.4.32.56c.15.27.75.38.75.38c-.22-.78-.1-1.47-.15-2.37c-.16-.24-.4-.52-.46-.78c-.31-.44-.57-.93-.93-1.36c-.35-.44-.81-.83-1.36-1c.02.09-.09.16-.15.17l.01-.06l-.14.1c-.08-.02.03-.18.1-.17c-.4-.2-.81-.26-1.21-.4c-.08.21-.22-.04-.28.18c-.01-.05.01-.05.03-.1c-.31.07-.32.07-.56-.24c-.58-.14-1.17-.12-1.75 0c-.57.13-1.12.33-1.65.57c-1.05.59-1.77 1.56-2.28 2.59c.21.32-.02.46.16.76l-.09-.05c.07.21-.1.18-.3.34c.11.04 0 .09.21.12c.14.12-.32.04-.26.17c-.07-.01.12.03.05.04c.17.33-.09-.09-.38.22c-.04.53.12 1.05.02 1.53c-.01-.03.15-.05.16 0c-.33.06.1.16-.03.24c-.07 0-.09-.04-.12-.06c-.13.23.12.39 0 .62c.16.17-.04.46.15.55l-.02 0zm1.58-2.67c0 0 .01.02.01.04c-.01-.02-.02-.03-.01-.04z" fill="#D59629"/><path d="m28.03 8.64c.01.03.03.05.05.07c.01 0 .01-.02-.05-.07z" fill="#D59629"/><path d="m19.11 8.02c-.01-.02-.02-.03-.05-.05c0 .02.01.03.05.05z" fill="#D59629"/><path d="m29.87 7.18c-.1-.01-.22.02-.33.02c.15.07.22 0 .33-.02z" fill="#D59629"/><path d="m28.18 8.66c-.06-.01.02.05.02.07c.02 0 .1.02.07 0c-.04-.03-.09-.05-.09-.07z" fill="#D59629"/><path d="m27.9 8.84c-.01.05.01.17.09.23l-.09-.23z" fill="#D59629"/><path d="m27.43 9.12c-.03-.04-.05-.07-.09-.1c-.02.03 0 .07.09.1z" fill="#D59629"/><path d="m27.47 9.26c.05.03.11.05.13.03c-.12-.12-.06.02-.13-.03z" fill="#D59629"/><path d="m26.76 9.64c.08.08.06-.01.07-.03c-.08-.13-.01.08-.07.03z" fill="#D59629"/><path d="m26.63 9.94l-.07-.1c0 0 .01.09.05.12c0-.03.01-.02.02-.02h0z" fill="#D59629"/><path d="m20.95 7.92l.1-.02l-.06-.03l-.04.05z" fill="#D59629"/><path d="m21.53 4.78c.02-.05.1.07.11.03c-.02 0-.14-.1-.11-.03z" fill="#D59629"/><path d="m22.52 3.17l.01-.01l-.12-.17l.1.18z" fill="#D59629"/><path d="m56.58 17.81c-.55 0-.82-.52-.82-1.55c0-1.58-.07-4.16-.22-7.68c-.18-4.43-.31-5.33-.38-5.47c-.03-.57.16-.93.53-1.19c.14-.09.31-.15.54-.21c.22-.05.42-.08.6-.08c.05-.01.24-.02.52-.02c.37 0 .64.06.82.2c.2.15.29.39.29.73c0 .29-.14.44-.26.53c-.15.1-.33.15-.54.15l-.23-.02h-.27c-.31 0-.38.05-.38.05c.02.67.07 1.61.17 2.75c.07.87.13 1.7.16 2.49c.08-.02.18-.04.29-.07c.29-.07.5-.1.66-.1c.22 0 .41.1.56.28c.15.17.22.37.22.59c0 .28-.14.5-.4.62l-.2.09c-.13.06-.28.1-.48.11l-.64.06c.01.8.08 1.86.2 3.13c.12 1.48.19 2.63.19 3.4c0 .02-.02.12-.03.13c0 .01.01.12.01.26c0 .24-.09.45-.27.6c-.17.14-.38.21-.64.21l0 0z" fill="white"/><path d="m65.71 18.37c-.42 0-.81-.14-1.16-.42c-.33-.27-.61-.64-.84-1.09c-.41-.76-.72-1.82-.91-3.13c-.14-.9-.24-1.95-.31-3.13l-.02-1.11v-1.12c-.01-.35-.02-.79-.02-1.31c0-.83.04-1.58.11-2.22c.06-.67.2-1.35.43-2.02c.24-.62.6-1.06 1.05-1.32c.3-.13.58-.2.86-.2c.8 0 1.45.32 1.92.96c.49.67.82 1.44.97 2.27c.22.97.35 1.92.38 2.81c.06.98.08 1.91.08 2.78v1.18c0 .24-.04.69-.11 1.35c-.05.5-.08.93-.08 1.28c-.09.5-.12.94-.12 1.45c0 .41-.09.84-.26 1.28c-.18.44-.43.83-.76 1.14c-.33.37-.74.56-1.19.56v0zm-.72-15.51c-.09 0-.35 0-.55.65c-.2.56-.34 1.17-.4 1.82c-.08.73-.13 1.43-.14 2.08l-.02.68c-.01.2-.02.45-.02.78c0 .99.1 2.13.29 3.47c.22 1.8.54 3.09.95 3.84c.16.28.4.61.67.61c.22 0 .41-.39.5-.62c.16-.43.28-.98.35-1.61c.07-.65.14-1.39.2-2.22c.03-.35.04-.81.04-1.37l-.02-1.9c-.03-.72-.11-1.66-.25-2.77c-.11-.93-.31-1.76-.61-2.47c-.13-.32-.28-.56-.46-.73c-.17-.16-.33-.23-.51-.23l0 0z" fill="white"/><path d="m77.46 18.1c-.24 0-.58 0-1.91-4.43c-.77-2.65-1.47-5.16-2.07-7.48v5.03c0 .57.06 1.56.17 2.95c.1 1.54.15 2.51.15 2.96c0 .14-.06.35-.34.51c-.18.11-.4.17-.63.17c-.61 0-.66-.43-.66-.55l.04-.62c.03-.43.04-.72.04-.86c0-.72-.04-1.85-.12-3.47c-.08-1.62-.12-2.61-.12-2.95v-2.65c0-.43.02-1.07.06-1.92c.06-.73.08-1.36.08-1.89c0-.96.23-1.38.68-1.38c.29 0 .55.31.89 1.04c.46 1 1.05 2.81 1.75 5.38c.38 1.42.83 3.24 1.33 5.43c.01-.6.02-1.16.03-1.69l.04-3.6v-6.14c.07-.49.39-.74.89-.74c.29 0 .78.13.78 1.03c0 .04-.01.2-.02.22c-.07.13-.1.3-.1.5c0 .84-.02 2.11-.06 3.81c-.04 1.71-.06 2.99-.06 3.85v6.32c0 .26-.07.51-.21.75c-.2.34-.45.41-.62.41l-.01.01z" fill="white"/><path d="m83.84 17.83c-.32 0-.6-.07-.83-.22c-.27-.16-.4-.41-.4-.71c0-.06.02-.12.06-.16c.15-.15.39-.64.39-2.27c0-.79-.06-1.94-.19-3.42c-.14-1.43-.21-2.58-.21-3.42l.04-1.15c.01-.33.02-.71.02-1.13c0-.37-.07-.84-.2-1.42c-.17-.64-.25-1.09-.25-1.36c0-.63.61-.95 1.82-.95h.31c.79 0 1.5.25 2.09.73c.47.41.87 1 1.18 1.76c.21.51.4 1.22.55 2.12c.09.79.13 1.41.13 1.86v1.64l-.04.17c0 .12.01.17.01.19c.02.08.03.17.03.26c0 .46-.07 1.01-.2 1.63c-.13.62-.33 1.27-.58 1.91c-.64 1.55-1.36 2.67-2.16 3.32c-.5.39-1.03.59-1.57.59l0 0zm.16-14.49c.01 1.24.09 3.06.25 5.41c.17 2.48.25 4.39.25 5.69v1.54c.34-.28.66-.64.94-1.07c.37-.58.66-1.23.86-1.94c.37-1.33.55-2.69.55-4.04c0-.73-.07-1.54-.21-2.41c-.15-.82-.46-1.56-.93-2.22c-.21-.3-.49-.54-.81-.71c-.27-.14-.57-.22-.89-.24z" fill="white"/><path d="m96.38 17.79c-.28 0-.48-.06-.62-.17c-.16-.13-.24-.33-.24-.59v-2.59c-.14-.07-.39-.15-.83-.24c-.43-.08-.84-.14-1.23-.17c-.11.24-.19.53-.24.86l-.09.42c-.01.09-.05.31-.12.64c-.07.34-.15.64-.23.89c-.09.25-.18.46-.27.61c-.04.07-.11.11-.19.11c-.63 0-1.01-.19-1.12-.57c-.02-.06-.01-.13.03-.19c.07-.11.24-.5.48-1.86l.68-3.79c.31-1.8.58-3.33.84-4.6c.26-1.28.54-2.36.83-3.22c.36-1.09.71-1.58 1.12-1.58c.34 0 .6.07.79.21c.06.04.09.11.09.18c0 .54.13 1.87.39 3.97c.28 2.07.42 3.51.42 4.27c0 .72.08 1.77.23 3.12c.14 1.4.21 2.53.21 3.36c0 .59-.33.93-.91.93l-.01.01zm-2.69-5.09c.51.13 1.05.2 1.61.2c.05 0 .11-.01.18-.02c-.04-.57-.11-1.26-.19-2.05c-.22-2.16-.36-3.75-.43-4.76c-.05.21-.11.45-.17.76c-.24 1.11-.47 2.31-.67 3.56c-.18 1.11-.28 1.88-.32 2.32v-.01z" fill="white"/><path d="m102.91 17.93c-.2 0-.48-.07-.68-.41c-.14-.23-.21-.52-.21-.85c0-.46.03-1.03.08-1.7l.04-.54l.04-1.09c0-.47-.05-1.52-.14-3.21c-.1-1.65-.15-2.74-.15-3.24c0-.04 0-.13.01-.25c.01-.11.01-.29.01-.54c.01-.28.02-.62.02-1.01c0-.97-.06-1.45-.14-1.69c-.09.01-.21.02-.36.05l-.6.04c-.24 0-.45-.07-.62-.2c-.2-.15-.3-.35-.3-.58c0-.4.48-.59.64-.64c.51-.17 1.34-.29 2.53-.37c.48-.03.76-.04.86-.04c.22 0 .42.07.6.21c.19.15.29.35.29.59c0 .23-.09.43-.25.57c-.16.14-.36.21-.59.21l-.39-.02c-.11-.01-.21-.02-.32-.02c.08.85.12 1.63.12 2.32l-.02 1.33c-.02.4-.02.85-.02 1.34c0 .66.03 1.45.08 2.37c.07 1.15.1 1.95.1 2.4c0 .52.03 1.14.08 1.85c.06.74.08 1.37.08 1.88c0 1.02-.45 1.24-.82 1.24l0 .01z" fill="white"/><path d="m110.3 17.77c-.86 0-2-.09-2-.84c0-.22.08-.72.84-.72h.25c.09.02.13.02.19.02c.06-.01.09-.06.09-.26c0-1.16-.07-2.78-.21-4.79c-.12-2.12-.19-3.73-.19-4.8c0-.39.01-.75.02-1.06l.02-1.05c0-.32-.01-.61-.03-.86c-.09.02-.19.02-.28.02c-.44 0-.7-.26-.7-.72c0-.17.07-.42.4-.62c.22-.14.51-.24.86-.3c.59-.1 1.1-.15 1.51-.15c.22 0 .42.07.58.23c.16.15.25.34.25.56c0 .21-.06.38-.18.53c-.13.16-.31.25-.52.25c-.1 0-.19-.01-.26-.03l-.11.01c-.11 0-.14.03-.14.03c0 0-.03.04-.03.18c0 1.45.09 3.48.27 6.03c.17 2.69.25 4.73.25 6.09v.55c.06 0 .12 0 .19 0c.95 0 1.09.59 1.09.95c0 .07-.04.27-.1.31l-.52.35c-.03.02-.08.04-.12.04c-.17.02-.32.02-.54.02c-.46.03-.76.04-.87.04l0 0z" fill="white"/><path d="m118.67 18.37c-.42 0-.81-.14-1.16-.42c-.33-.27-.61-.64-.84-1.09c-.41-.76-.72-1.82-.91-3.13c-.14-.9-.24-1.95-.31-3.13l-.02-1.11v-1.12c-.01-.35-.02-.79-.02-1.31c0-.83.04-1.58.11-2.22c.06-.67.2-1.35.43-2.02c.24-.62.6-1.06 1.05-1.32c.3-.13.58-.2.86-.2c.8 0 1.45.32 1.92.96c.49.67.82 1.44.97 2.27c.22.97.35 1.92.38 2.81c.06.98.08 1.91.08 2.78v1.18c0 .24-.04.69-.11 1.35c-.05.5-.08.93-.08 1.28c-.09.5-.12.94-.12 1.45c0 .41-.09.84-.26 1.28c-.18.44-.43.83-.76 1.14c-.33.37-.74.56-1.19.56v0zm-.72-15.51c-.09 0-.35 0-.55.65c-.2.56-.34 1.17-.4 1.82c-.08.73-.13 1.43-.14 2.08l-.02.68c-.01.2-.02.45-.02.78c0 .99.1 2.13.29 3.47c.22 1.8.53 3.09.95 3.84c.16.28.4.61.67.61c.22 0 .41-.39.5-.62c.16-.43.28-.98.35-1.61c.07-.65.14-1.39.2-2.22c.03-.35.04-.81.04-1.37l-.02-1.9c-.03-.72-.11-1.66-.25-2.77c-.11-.93-.31-1.76-.61-2.47c-.13-.32-.28-.56-.47-.73c-.17-.16-.33-.23-.51-.23l0 0z" fill="white"/><path d="m130.41 18.1c-.24 0-.58 0-1.91-4.43c-.77-2.65-1.47-5.16-2.07-7.48v5.03c0 .57.06 1.56.17 2.95c.1 1.54.15 2.51.15 2.96c0 .14-.06.35-.34.51c-.19.11-.4.17-.63.17c-.61 0-.66-.43-.66-.55l.04-.62c.03-.43.04-.72.04-.86c0-.72-.04-1.85-.12-3.47c-.08-1.62-.12-2.61-.12-2.95v-2.65c0-.43.02-1.07.06-1.92c.06-.73.08-1.36.08-1.89c0-.96.23-1.38.68-1.38c.29 0 .55.31.89 1.04c.46 1 1.05 2.81 1.75 5.38c.38 1.42.83 3.24 1.33 5.43c.01-.6.02-1.16.03-1.69l.04-3.6v-6.14c.07-.49.39-.74.89-.74c.29 0 .78.13.78 1.03c0 .04-.01.2-.02.22c-.07.13-.1.3-.1.5c0 .84-.02 2.11-.06 3.81c-.04 1.71-.06 2.99-.06 3.85v6.32c0 .26-.07.51-.21.75c-.2.34-.45.41-.62.41l-.01.01z" fill="white"/><path d="m62.86 47.03c-.38 0-.75-.25-1.08-.75c-.02-.04-.04-.15-.04-.2c-.05-.83-.19-1.77-.43-2.8c-.24-1.04-.6-2.31-1.06-3.78c-.17-.52-.32-1.01-.46-1.48v7.94c0 .31-.06.54-.17.7c-.13.18-.37.27-.7.27c-.26 0-.46-.09-.62-.25c-.15-.16-.23-.37-.23-.62l.05-7.3c.03-2.1.05-4.45.05-7.08v-2.97c0-.26.06-.45.2-.56c.12-.11.33-.17.66-.17c.43 0 .84.09 1.2.25c.37.17.68.4.94.7c.52.59.87 1.31 1.02 2.14c.07.34.1.72.1 1.15c0 .25-.02.53-.06.83c-.04.3-.07.49-.09.57c-.03.17-.11.42-.23.75l-.22.62l-.29.7l-.24.62c.03.48.13 1.2.31 2.07c.18.89.39 1.71.61 2.45c.16.53.45 1.41.87 2.65l.7 2.13c.01.42-.01.66-.07.87c-.07.35-.33.55-.72.55l0 0zm-3.06-15.3c-.05 1.08-.07 1.92-.07 2.51c0 .22 0 .4 0 .56c.14-.16.28-.33.45-.54l.32-1.98c.01-.07.02-.17.02-.3c0-.44-.09-.97-.26-1.56c-.09-.26-.2-.49-.34-.66c-.02-.03-.05-.06-.08-.09l-.04 2.05l0 0z" fill="white"/><path d="m68.51 46.93c-.33 0-.62-.05-.87-.13c-.25-.07-.56-.29-.56-.89v-14.04c0-.26-.05-.66-.14-1.19c-.11-.5-.17-.93-.17-1.27c0-.04.01-.15.03-.19c.29-.48.49-.77.64-.91c.04-.04.1-.06.16-.06c.22 0 .5-.03.86-.09c.35-.07.66-.1.93-.1c.3 0 .59.09.87.26c.31.2.46.44.46.73c0 .43-.23.95-1.33.95h-.34c-.12-.02-.22-.02-.34-.02c-.01 0-.03 0-.04 0c.01.5.04 1.09.1 1.76l.05.68l.05 1.34c0 .32-.02.79-.07 1.43l-.04 1.06l.06-.01c.33-.1.61-.15.84-.15c.23 0 .45.09.64.27c.19.18.29.39.29.64c0 .24-.08.46-.23.66c-.16.21-.38.31-.62.31l-.31-.02h-.29c-.12 0-.22.02-.28.05v7.13l1.12-.06c1.07 0 1.61.29 1.61.85c0 .04-.01.17-.02.2c-.12.24-.33.43-.64.57c-.28.13-.55.21-.82.25c0 0-.82.02-.83.02h-.75l0 .01z" fill="white"/><path d="m76.53 46.98c-1.1 0-1.33-.45-1.33-.83l.1-5.95c0-1.08-.02-2.71-.07-4.9c-.05-2.18-.07-3.81-.07-4.91v-.15c0-.44.04-.84.12-1.21c.12-.53.47-.83.99-.83c1.19 0 2.15.39 2.85 1.16c.7.76 1.05 1.78 1.05 3.03c0 .76-.2 1.55-.6 2.37c-.34.7-.75 1.25-1.21 1.65c.84.62 1.48 1.41 1.9 2.35c.45 1.01.68 2.15.68 3.36c0 .59-.2 1.33-.6 2.2c-.49 1.04-1.16 1.8-2.01 2.25c-.52.26-1.09.39-1.7.39h-.1h0zm.45-9.26c.07 1.8.11 4.32.11 7.51c.61-.14 1.1-.45 1.49-.95c.43-.57.66-1.27.66-2.07c0-.72-.06-1.4-.18-2c-.11-.59-.26-1.04-.44-1.34c-.17-.29-.34-.54-.51-.74c-.2-.23-.32-.32-.39-.35l-.17-.06l-.56.01v0zm.04-7.7c-.04 0-.11.13-.11.53c0 1.06.01 2.01.05 2.84l.04 2.36c.24-.15.45-.42.65-.81c.24-.44.46-.98.66-1.61c.05-.17.13-.41.25-.69l-.02-.76c0-.43-.16-.86-.48-1.26c-.31-.4-.65-.59-1.03-.59v0z" fill="white"/><path d="m87.89 47.46c-.49 0-.93-.16-1.32-.49c-.38-.31-.71-.73-.98-1.26c-.48-.88-.83-2.11-1.06-3.64c-.16-1.04-.28-2.27-.37-3.64l-.02-1.29v-1.31c-.02-.41-.02-.92-.02-1.52c0-.98.04-1.85.12-2.59c.06-.78.23-1.57.49-2.34c.28-.71.69-1.22 1.21-1.52c.34-.15.66-.22.98-.22c.93 0 1.67.37 2.21 1.1c.57.78.94 1.67 1.13 2.63c.26 1.12.41 2.23.44 3.27c.06 1.15.1 2.25.1 3.25v1.38c0 .28-.04.8-.12 1.57c-.06.59-.1 1.09-.1 1.5c0 .02 0 .13 0 .15c-.09.43-.14.95-.14 1.55c0 .48-.1.98-.31 1.48c-.2.51-.5.95-.87 1.31c-.39.42-.85.64-1.36.64h-.01zm-.84-18.1c-.11 0-.44 0-.68.78c-.24.65-.4 1.37-.48 2.13c-.1.86-.15 1.67-.17 2.42l-.02.8c-.02.23-.02.53-.02.91c0 1.16.11 2.49.34 4.05c.25 2.11.63 3.62 1.11 4.49c.19.33.49.73.82.73c.27 0 .48-.41.61-.75c.18-.51.32-1.15.41-1.89c.09-.76.16-1.63.23-2.59c.03-.42.05-.95.05-1.6l-.02-2.22c-.03-.85-.13-1.94-.29-3.24c-.13-1.09-.37-2.06-.71-2.89c-.15-.37-.33-.66-.55-.87c-.2-.19-.4-.28-.62-.28l0 0z" fill="white"/><path d="m100.84 47.15c-.27 0-.65 0-2.2-5.14c-.93-3.21-1.77-6.23-2.49-9v6.16c0 .67.06 1.83.19 3.44c.11 1.77.17 2.93.17 3.45c0 .16-.06.38-.38.57c-.21.12-.45.19-.72.19c-.66 0-.73-.43-.73-.61l.05-.72c.03-.51.05-.84.05-1c0-.84-.05-2.21-.15-4.05c-.1-1.92-.15-3.04-.15-3.44v-3.09c0-.5.02-1.25.07-2.24c.06-.85.1-1.59.1-2.21v-.15c0-.95.25-1.43.76-1.43c.32 0 .62.36 1 1.19c.53 1.16 1.22 3.27 2.04 6.27c.46 1.71 1 3.94 1.62 6.64c.01-.81.02-1.58.04-2.28l.05-4.2v-7.15c.08-.55.44-.83 1-.83c.33 0 .88.15.88 1.16v.15c-.11.26-.15.46-.15.7c0 .98-.02 2.47-.07 4.45c-.05 1.99-.08 3.49-.08 4.49v7.37c0 .29-.08.58-.23.85c-.23.38-.5.46-.69.46v0z" fill="white"/><path d="m107.55 46.83c-.36 0-.68-.09-.95-.25c-.3-.18-.45-.46-.45-.79c0-.06.02-.12.06-.16c.21-.21.47-.85.47-2.67c0-.9-.08-2.25-.22-3.99c-.16-1.67-.24-3.01-.24-3.98l.05-1.34c.01-.38.03-.82.03-1.32c0-.43-.08-.99-.24-1.66c-.2-.75-.3-1.26-.3-1.57c0-.71.7-1.07 2.08-1.07h.36c.92 0 1.73.28 2.41.85c.54.48 1 1.16 1.37 2.04c.25.6.46 1.4.64 2.47c.1.94.15 1.64.15 2.16v1.91l-.05.19c0 .14.01.21.02.24c.02.08.03.17.03.29c0 .53-.08 1.16-.23 1.9c-.16.73-.38 1.48-.67 2.22c-.74 1.8-1.58 3.1-2.51 3.86c-.57.45-1.18.68-1.81.68l0 0zm.15-16.91c.01 1.43.11 3.57.29 6.35c.19 2.91.29 5.15.29 6.64v1.87c.43-.33.82-.77 1.16-1.3c.44-.68.78-1.44 1.02-2.27c.43-1.55.65-3.14.65-4.72c0-.86-.08-1.8-.24-2.82c-.17-.95-.54-1.83-1.1-2.61c-.25-.35-.58-.64-.96-.84c-.33-.17-.7-.27-1.1-.29l0 0z" fill="white"/><path d="m118.03 46.76c-.99 0-2.3-.1-2.3-.95c0-.24.09-.8.95-.8h.29c.1.02.16.02.22.02c.1-.03.14-.1.14-.33c0-1.36-.08-3.24-.24-5.59c-.14-2.45-.22-4.33-.22-5.6c0-.45.01-.87.02-1.24l.02-1.23c0-.39-.01-.75-.04-1.04c-.12.02-.24.04-.37.04c-.49 0-.78-.29-.78-.8c0-.27.15-.51.45-.7c.26-.16.59-.28.99-.34c.69-.11 1.28-.17 1.75-.17c.25 0 .47.09.65.26c.18.17.27.38.27.62c0 .24-.07.43-.2.6c-.15.18-.34.28-.57.28c-.12 0-.21-.01-.29-.03l-.14.01c-.14 0-.18.03-.19.04c0 0-.04.05-.04.24c0 1.69.11 4.06.31 7.04c.19 3.12.29 5.51.29 7.1v.68c.08 0 .16 0 .26 0c1.08 0 1.24.67 1.24 1.07v.15c0 .07-.04.14-.09.18l-.6.41c-.04.02-.08.04-.12.04c-.21.02-.38.02-.63.02c-.54.03-.88.05-1.02.05l-.01-.01z" fill="white"/><path d="m128.82 47.03c-.38 0-.75-.25-1.08-.75c-.02-.04-.04-.15-.04-.2c-.05-.83-.19-1.77-.43-2.8c-.24-1.04-.6-2.31-1.06-3.78c-.17-.52-.32-1.01-.46-1.48v7.94c0 .31-.06.54-.17.7c-.13.18-.37.27-.7.27c-.25 0-.46-.09-.62-.25c-.15-.16-.23-.37-.23-.62l.05-7.3c.03-2.1.05-4.45.05-7.08v-2.97c0-.26.06-.45.19-.56c.12-.11.33-.17.66-.17c.43 0 .84.09 1.2.25c.37.17.69.4.94.7c.52.59.87 1.31 1.02 2.14c.07.34.1.72.1 1.15c0 .25-.02.53-.06.83c-.04.3-.07.49-.09.57c-.03.17-.11.42-.23.75l-.22.62l-.29.7l-.24.62c.03.48.13 1.2.31 2.07c.19.89.39 1.71.61 2.45c.16.53.45 1.41.87 2.65l.7 2.13c.01.42-.01.66-.07.87c-.07.35-.33.55-.72.55l0 0zm-3.06-15.3c-.05 1.08-.08 1.92-.08 2.51c0 .22 0 .4 0 .56c.14-.16.28-.33.45-.54l.32-1.98c.01-.07.02-.17.02-.3c0-.44-.09-.97-.25-1.56c-.09-.26-.2-.49-.34-.66c-.02-.03-.05-.06-.08-.09l-.04 2.05l0 0z" fill="white"/></g><defs><clipPath id="clip0_1_764"><rect width="131.54" height="60" fill="white"/></clipPath></defs></svg>